HIERARCHY
ROOT Hips
{
 OFFSET 0.000000 0.000000 0.000000
 CHANNELS 6 Xposition Yposition Zposition Yrotation Xrotation Zrotation
 JOINT Chest
 {
  OFFSET 0.000000 9.588913 -0.003946
  CHANNELS 3 Yrotation Xrotation Zrotation
  JOINT Chest2
  {
   OFFSET 0.000000 9.541882 0.008053
   CHANNELS 3 Yrotation Xrotation Zrotation
   JOINT Chest3
   {
    OFFSET 0.000000 9.501360 0.000000
    CHANNELS 3 Yrotation Xrotation Zrotation
    JOINT Chest4
    {
     OFFSET 0.000000 9.491660 0.000000
     CHANNELS 3 Yrotation Xrotation Zrotation
     JOINT Neck
     {
      OFFSET 0.000000 14.331917 0.000000
      CHANNELS 3 Yrotation Xrotation Zrotation
      JOINT Head
      {
       OFFSET 0.000000 8.884799 0.017034
       CHANNELS 3 Yrotation Xrotation Zrotation
       End Site
       {
        OFFSET 0.000000 16.896195 0.008993
       }
      }
     }
     JOINT RightCollar
     {
      OFFSET -2.923010 9.499495 0.000000
      CHANNELS 3 Yrotation Xrotation Zrotation
      JOINT RightShoulder
      {
       OFFSET -13.795216 0.000000 0.000000
       CHANNELS 3 Yrotation Xrotation Zrotation
       JOINT RightElbow
       {
        OFFSET -30.272209 0.000000 0.000000
        CHANNELS 3 Yrotation Xrotation Zrotation
        JOINT RightWrist
        {
         OFFSET -24.478199 0.000000 0.000000
         CHANNELS 3 Yrotation Xrotation Zrotation
         End Site
         {
          OFFSET -18.090752 0.000000 0.000000
         }
        }
       }
      }
     }
     JOINT LeftCollar
     {
      OFFSET 2.923010 9.499495 0.000000
      CHANNELS 3 Yrotation Xrotation Zrotation
      JOINT LeftShoulder
      {
       OFFSET 13.795216 0.000000 0.000000
       CHANNELS 3 Yrotation Xrotation Zrotation
       JOINT LeftElbow
       {
        OFFSET 30.272209 0.000000 0.000000
        CHANNELS 3 Yrotation Xrotation Zrotation
        JOINT LeftWrist
        {
         OFFSET 24.478199 0.000000 0.000000
         CHANNELS 3 Yrotation Xrotation Zrotation
         End Site
         {
          OFFSET 18.090752 0.000000 0.000000
         }
        }
       }
      }
     }
    }
   }
  }
 }
 JOINT RightHip
 {
  OFFSET -7.826875 0.019532 0.001973
  CHANNELS 3 Yrotation Xrotation Zrotation
  JOINT RightKnee
  {
   OFFSET 0.000000 -40.546152 -0.001885
   CHANNELS 3 Yrotation Xrotation Zrotation
   JOINT RightAnkle
   {
    OFFSET 0.000000 -39.417092 -0.003189
    CHANNELS 3 Yrotation Xrotation Zrotation
    JOINT RightToe
    {
     OFFSET 0.000000 -7.579396 17.243563
     CHANNELS 3 Yrotation Xrotation Zrotation
     End Site
     {
      OFFSET 0.000000 -1.500329 6.694466
     }
    }
   }
  }
 }
 JOINT LeftHip
 {
  OFFSET 7.826875 0.019532 0.001973
  CHANNELS 3 Yrotation Xrotation Zrotation
  JOINT LeftKnee
  {
   OFFSET 0.000000 -40.546152 -0.001885
   CHANNELS 3 Yrotation Xrotation Zrotation
   JOINT LeftAnkle
   {
    OFFSET 0.000000 -39.417092 -0.003189
    CHANNELS 3 Yrotation Xrotation Zrotation
    JOINT LeftToe
    {
     OFFSET 0.000000 -7.579396 17.243563
     CHANNELS 3 Yrotation Xrotation Zrotation
     End Site
     {
      OFFSET 0.000000 -1.500329 6.694466
     }
    }
   }
  }
 }
}
MOTION
Frames: 16
Frame Time: 0.008333
0.000000 87.345680 0.000000 0.000000 -5.767889 0.000000 0.000000 11.653876 0.000000 0.000000 -5.885988 0.000000 0.000000 -0.000000 0.000000 0.000000 -0.000000 0.000000 0.000000 12.528808 0.000000 0.000000 0.711711 0.000000 0.000000 -0.000000 0.000000 0.000000 -0.000000 0.000000 2.309063 -0.000000 0.000000 -2.309063 -0.000000 -0.000000 0.000000 -0.000000 0.000000 0.000000 0.000000 0.000000 -2.309063 0.000000 0.000000 2.309063 -0.000000 0.000000 0.000000 8.520374 0.000000 0.000000 1.905768 0.000000 -0.000000 -4.658254 0.000000 0.000000 -0.000000 0.000000 0.000000 8.520374 0.000000 0.000000 1.905768 0.000000 -0.000000 -4.658254 0.000000 0.000000 -0.000000 0.000000
0.987792 88.373172 -38.188862 122.008593 -5.309289 -3.313617 -4.709948 -1.390080 -2.720712 -2.664505 -0.761542 -1.612840 -3.327276 -0.963559 -2.010426 -2.664505 -0.761543 -1.612841 8.466601 25.329776 -3.184602 10.194317 2.459807 -5.499751 23.503014 -3.945652 -6.160719 4.289855 -55.164649 80.396604 58.626341 -49.360811 4.985475 23.689545 -21.468744 -25.035158 -5.514171 -2.276173 1.992567 -25.634382 -56.372559 -85.661417 -41.517988 -28.094778 -28.592012 -32.985181 -20.195900 48.875784 4.258895 3.755981 7.987786 8.577419 5.374078 1.653453 17.540965 -2.151325 -3.447022 0.020346 0.063990 0.044609 16.517672 11.871936 9.996207 7.439416 4.082583 3.464861 10.452637 -8.531431 -9.951700 -0.031319 -0.342580 0.156682
0.950567 88.379605 -38.215468 122.138807 -5.306361 -3.244043 -4.674549 -1.370809 -2.733797 -2.635805 -0.745449 -1.621108 -3.291451 -0.943378 -2.020937 -2.635805 -0.745449 -1.621109 9.196151 25.106756 -3.240795 11.056826 2.278490 -5.743812 23.414781 -4.033847 -6.061921 4.145076 -54.868478 80.406069 59.155552 -48.199540 4.955987 23.672550 -21.174946 -25.122853 -5.526952 -2.320240 2.029376 -25.651870 -56.262969 -85.585076 -41.449163 -28.214479 -28.672179 -32.730030 -20.408602 48.391675 4.066007 3.738258 7.872230 8.577046 5.462445 1.655537 17.623811 -2.229468 -3.443884 0.019372 0.076767 0.042304 16.361727 11.854373 9.897875 7.465338 4.124362 3.441239 10.421341 -8.502970 -9.931420 -0.027891 -0.342001 0.145348
0.905198 88.387151 -38.246058 122.307401 -5.290749 -3.157879 -4.635221 -1.351071 -2.750675 -2.606304 -0.729105 -1.632501 -3.254619 -0.922903 -2.035356 -2.606304 -0.729106 -1.632503 9.980535 24.868861 -3.301626 11.993531 2.092694 -6.008799 23.312404 -4.142071 -5.950524 3.970036 -54.537015 80.415818 59.722501 -46.919281 4.926574 23.643156 -20.849269 -25.208173 -5.549971 -2.356254 2.073166 -25.642004 -56.149877 -85.541833 -41.393839 -28.335065 -28.768744 -32.393541 -20.666089 47.761527 3.842337 3.715344 7.745777 8.573251 5.557443 1.658914 17.618346 -2.322785 -3.448277 0.011980 0.087639 0.036966 16.187189 11.817626 9.775025 7.477315 4.172086 3.417273 10.379405 -8.471564 -9.900361 -0.019152 -0.344513 0.135752
0.855085 88.395897 -38.279707 122.512127 -5.274760 -3.063158 -4.592426 -1.324277 -2.767027 -2.574369 -0.710032 -1.646176 -3.214755 -0.899018 -2.052647 -2.574370 -0.710032 -1.646178 10.816739 24.618953 -3.364789 13.002905 1.906421 -6.291788 23.187122 -4.269097 -5.829962 3.804899 -54.164390 80.400225 60.356568 -45.532779 4.859721 23.602790 -20.497266 -25.279539 -5.590077 -2.386488 2.118602 -25.601819 -56.028225 -85.522414 -41.345600 -28.480066 -28.887664 -31.936501 -20.965073 46.938219 3.587892 3.689011 7.598515 8.566921 5.660487 1.664700 17.633897 -2.421054 -3.449370 0.007374 0.096967 0.033694 15.997938 11.770750 9.641996 7.473110 4.230295 3.392025 10.328773 -8.441239 -9.860823 -0.008720 -0.349752 0.127459
0.801974 88.405762 -38.315298 122.751234 -5.263407 -2.965304 -4.547780 -1.289439 -2.779990 -2.539622 -0.687166 -1.660749 -3.171391 -0.870384 -2.071089 -2.539623 -0.687167 -1.660751 11.697591 24.362408 -3.431136 14.079389 1.726324 -6.592341 23.035520 -4.404770 -5.705664 3.667317 -53.752588 80.354848 61.080855 -44.062605 4.740606 23.550859 -20.117709 -25.334082 -5.643137 -2.410881 2.162078 -25.535300 -55.894965 -85.517737 -41.303470 -28.651085 -29.030285 -31.327376 -21.295145 45.918726 3.309044 3.660066 7.429773 8.561024 5.769844 1.675638 17.702976 -2.516516 -3.446056 0.009622 0.104343 0.035281 15.795649 11.717683 9.508971 7.453717 4.300055 3.363133 10.263258 -8.415148 -9.812383 -0.001860 -0.357017 0.119150
0.745624 88.416536 -38.352573 123.022232 -5.257042 -2.862230 -4.503136 -1.251238 -2.793897 -2.503198 -0.660068 -1.674869 -3.125953 -0.836447 -2.088993 -2.503198 -0.660069 -1.674872 12.614443 24.104235 -3.504005 15.216114 1.558392 -6.912427 22.867427 -4.541023 -5.578260 3.562647 -53.300463 80.277342 61.909302 -42.541029 4.576476 23.487105 -19.705163 -25.375061 -5.694587 -2.424645 2.202764 -25.437987 -55.757094 -85.534728 -41.265380 -28.802887 -29.194742 -30.580334 -21.637999 44.782611 3.020368 3.636427 7.256296 8.557958 5.882041 1.689182 17.728528 -2.612647 -3.447900 0.011437 0.108772 0.038352 15.581185 11.659460 9.374542 7.421413 4.380897 3.329466 10.179120 -8.393707 -9.752798 -0.004806 -0.366516 0.108974
0.686082 88.428152 -38.391620 123.322009 -5.260997 -2.754569 -4.457378 -1.209416 -2.812534 -2.465107 -0.627941 -1.688513 -3.078457 -0.796210 -2.106333 -2.465107 -0.627942 -1.688517 13.558824 23.847678 -3.584736 16.405443 1.406021 -7.251699 22.693492 -4.679468 -5.437377 3.489024 -52.801490 80.154447 62.841560 -41.003452 4.382419 23.405386 -19.264797 -25.398913 -5.738088 -2.424235 2.244665 -25.299723 -55.622561 -85.583683 -41.218939 -28.888538 -29.388751 -29.780027 -21.974274 43.665893 2.738034 3.624273 7.089286 8.560981 5.997566 1.699652 17.665795 -2.712707 -3.455188 0.008651 0.110276 0.041204 15.356881 11.600060 9.236561 7.379871 4.473417 3.295750 10.084974 -8.375559 -9.684474 -0.016866 -0.377877 0.096701
0.622362 88.440472 -38.429004 123.663572 -5.264416 -2.661269 -4.423234 -1.175415 -2.820107 -2.424306 -0.589916 -1.701682 -3.027603 -0.748584 -2.123115 -2.424306 -0.589917 -1.701686 14.522497 23.594092 -3.674351 17.639462 1.270061 -7.609491 22.518843 -4.824561 -5.275534 3.426650 -52.249903 79.979556 63.865316 -39.471273 4.180058 23.296301 -18.810813 -25.402244 -5.777110 -2.410985 2.289909 -25.123990 -55.495952 -85.658676 -41.144618 -28.904291 -29.630943 -29.033409 -22.286456 42.681855 2.457550 3.603891 6.939000 8.569238 6.118716 1.705407 17.564366 -2.815157 -3.459891 0.004514 0.113380 0.045097 15.110553 11.524009 9.104673 7.331687 4.579903 3.267124 9.995181 -8.337509 -9.611114 -0.035638 -0.412704 0.082679
0.556174 88.453807 -38.471152 124.019313 -5.304533 -2.558476 -4.369777 -1.115430 -2.840526 -2.379445 -0.544480 -1.713832 -2.971713 -0.691666 -2.138670 -2.379445 -0.544482 -1.713837 15.498381 23.342399 -3.774456 18.911320 1.148405 -7.986094 22.345619 -4.983351 -5.097704 3.339493 -51.645202 79.765723 64.956194 -37.947824 3.996001 23.157616 -18.353143 -25.386768 -5.816264 -2.389366 2.337195 -24.942583 -55.381641 -85.731455 -41.034895 -28.884714 -29.921680 -28.381048 -22.551192 41.848432 2.210254 3.614273 6.777393 8.577754 6.241632 1.707678 17.447233 -2.914405 -3.457746 0.001643 0.113035 0.050943 14.865510 11.470974 8.967086 7.275317 4.700779 3.241355 9.919230 -8.325297 -9.535275 -0.055375 -0.423996 0.069884
0.485450 88.468013 -38.515777 124.401796 -5.368398 -2.456737 -4.308386 -1.041344 -2.862416 -2.329179 -0.490137 -1.725206 -2.909112 -0.623581 -2.153307 -2.329179 -0.490138 -1.725213 16.481359 23.091520 -3.884041 20.215454 1.038885 -8.379210 22.169652 -5.165331 -4.911105 3.196232 -50.990187 79.539573 66.094665 -36.421805 3.844368 22.981833 -17.899807 -25.351052 -5.862098 -2.365130 2.385968 -24.808901 -55.274677 -85.755393 -40.912868 -28.865982 -30.222182 -27.785180 -22.759956 41.097046 1.982397 3.644095 6.613775 8.581844 6.362080 1.705659 17.318281 -3.011338 -3.447641 0.000382 0.113305 0.057945 14.602090 11.430687 8.831171 7.210324 4.833117 3.213818 9.850522 -8.316214 -9.453317 -0.079824 -0.435446 0.056912
0.409180 88.483098 -38.563006 124.812603 -5.455638 -2.355430 -4.239156 -0.952738 -2.885945 -2.274046 -0.426964 -1.736104 -2.840475 -0.544430 -2.167395 -2.274046 -0.426965 -1.736112 17.468330 22.843239 -4.000398 21.548011 0.943002 -8.784916 21.988131 -5.377521 -4.718443 2.986798 -50.285017 79.318961 67.277638 -34.884045 3.725791 22.752342 -17.455736 -25.293563 -5.918014 -2.343123 2.433755 -24.770955 -55.159406 -85.687349 -40.816797 -28.866153 -30.477692 -27.184254 -22.930742 40.334230 1.767609 3.697851 6.451509 8.576290 6.476846 1.696996 17.160470 -3.107357 -3.429130 -0.001147 0.113996 0.063544 14.308876 11.406496 8.695520 7.141635 4.972886 3.182613 9.786206 -8.308156 -9.367601 -0.104540 -0.447474 0.046452
0.326742 88.499108 -38.612720 125.255402 -5.565649 -2.254428 -4.163207 -0.848776 -2.910439 -2.215412 -0.355242 -1.746418 -2.767507 -0.454571 -2.180790 -2.215412 -0.355243 -1.746427 18.451347 22.600499 -4.121169 22.898259 0.862612 -9.198195 21.797031 -5.620261 -4.524366 2.712812 -49.529982 79.112318 68.509092 -33.336376 3.634410 22.459430 -17.021384 -25.215109 -5.984329 -2.326543 2.477854 -24.848029 -55.024580 -85.516227 -40.768767 -28.893880 -30.652834 -26.518594 -23.082860 39.478418 1.553227 3.778552 6.293106 8.559016 6.585943 1.681724 16.958931 -3.203864 -3.405479 -0.004406 0.113876 0.067145 13.976902 11.400085 8.558685 7.073014 5.116439 3.147122 9.724902 -8.298619 -9.282264 -0.124704 -0.459945 0.042005
0.238071 88.516125 -38.664634 125.735298 -5.698797 -2.154045 -4.081968 -0.727925 -2.933923 -2.153990 -0.275268 -1.756916 -2.691098 -0.354380 -2.194444 -2.153991 -0.275268 -1.756927 19.419349 22.365935 -4.243856 24.250507 0.798281 -9.612872 21.584008 -5.881261 -4.333321 2.387591 -48.734464 78.925551 69.801054 -31.791337 3.550072 22.098384 -16.597510 -25.118469 -6.057499 -2.313769 2.520707 -25.031528 -54.872611 -85.266703 -40.769402 -28.948732 -30.736892 -25.743007 -23.223129 38.467440 1.327390 3.885198 6.129661 8.534530 6.687933 1.661972 16.750224 -3.298349 -3.374704 -0.005213 0.113917 0.071678 13.603650 11.411028 8.420855 7.005000 5.263693 3.109416 9.657781 -8.286870 -9.199642 -0.139238 -0.473152 0.043804
0.139931 88.533738 -38.714669 126.273255 -5.825087 -2.060929 -4.018219 -0.618057 -2.948672 -2.090370 -0.188859 -1.768538 -2.611978 -0.246138 -2.209514 -2.090372 -0.188859 -1.768551 20.364313 22.143242 -4.367039 25.592539 0.752444 -10.024670 21.342850 -6.136536 -4.144537 2.037365 -47.917045 78.752354 71.163428 -30.277940 3.459714 21.676590 -16.177351 -25.015050 -6.124725 -2.295033 2.565159 -25.295868 -54.713380 -84.977642 -40.807564 -29.020002 -30.741061 -24.832195 -23.354978 37.259329 1.068087 3.985222 5.962927 8.506178 6.784472 1.638119 16.543854 -3.396236 -3.335740 -0.002585 0.120843 0.077929 13.175522 11.407044 8.279679 6.940591 5.415878 3.071896 9.575720 -8.260028 -9.116181 -0.154340 -0.499372 0.047247
0.036678 88.552541 -38.768389 126.826701 -5.986945 -1.952945 -3.930938 -0.478068 -2.976421 -2.024993 -0.098258 -1.780841 -2.530690 -0.132648 -2.225430 -2.024996 -0.098258 -1.780855 21.278507 21.936514 -4.492064 26.912633 0.728311 -10.432615 21.080396 -6.367089 -3.954448 1.674613 -47.089109 78.579100 72.588378 -28.826175 3.380974 21.229894 -15.756608 -24.922309 -6.175727 -2.261902 2.611612 -25.592406 -54.556090 -84.691451 -40.863310 -29.091565 -30.701944 -23.768434 -23.482212 35.837704 0.821518 4.123385 5.783805 8.473451 6.876022 1.607162 16.296878 -3.492184 -3.291744 -0.000720 0.123756 0.085057 12.744902 11.428157 8.129250 6.881569 5.573604 3.032722 9.465353 -8.242182 -9.029058 -0.165933 -0.513825 0.052234
